<svg width="114" height="114" viewBox="0 0 114 114" fill="none" xmlns="http://www.w3.org/2000/svg">
<g clip-path="url(#clip0_4338_535)">
<path d="M103.783 88.1494C110.01 78.8307 113.333 67.8745 113.333 56.667C113.333 49.2254 111.867 41.8566 109.02 34.9814C106.172 28.1065 101.998 21.8596 96.7363 16.5977C91.4744 11.3358 85.2275 7.16124 78.3525 4.31348C71.4775 1.46575 64.1084 4.03439e-05 56.667 0C45.4595 0 34.5033 3.3233 25.1845 9.5498C15.8658 15.7764 8.60242 24.627 4.31345 34.9814C0.0245523 45.3359 -1.09762 56.7295 1.08884 67.7217C3.27534 78.7139 8.67265 88.8114 16.5976 96.7363C24.5225 104.661 34.6193 110.058 45.6113 112.244C56.6036 114.431 67.998 113.308 78.3525 109.02C88.7067 104.731 97.5567 97.4679 103.783 88.1494Z" fill="black" fill-opacity="0.5"/>
<circle cx="56.668" cy="56.667" r="42" fill="white"/>
<path d="M80.1479 57.459C83.2095 58.2883 83.1368 62.6572 80.0493 63.3838L53.562 69.6162C52.9911 69.7505 52.393 69.7165 51.8403 69.5205L38.3159 64.7236C37.0795 64.2852 35.7345 65.0103 35.4214 66.2842C35.1507 67.3867 35.7564 68.5164 36.8247 68.9004L52.9731 74.6992L79.8813 68.4385C81.1906 68.1342 82.4996 68.9496 82.8042 70.2588C83.1085 71.5681 82.2932 72.877 80.9839 73.1816L53.5561 79.5625C53.5281 79.569 53.4993 79.5724 53.4712 79.5781C53.0072 79.7061 52.5013 79.6994 52.0132 79.5264C46.0161 77.3991 39.9483 75.243 32.5259 71.7842C30.694 70.9305 30.0887 67.581 30.6929 65.1221C31.2846 62.7145 33.0302 60.9201 35.1743 60.1455C35.3979 59.9814 35.6543 59.8534 35.936 59.7715L42.3237 57.917C44.8557 59.8291 48.0007 60.9736 51.4575 60.9736L51.9536 60.9658C53.31 60.9216 54.6223 60.6953 55.8677 60.3154L58.9946 63.542L59.2671 63.8096C62.1365 66.4786 66.633 66.3893 69.395 63.5479L69.396 63.5469C71.7023 61.1731 72.0773 57.6121 70.519 54.8506L80.1479 57.459Z" fill="black" fill-opacity="0.5"/>
<path d="M51.4569 33.6665C57.7962 33.6668 62.8288 38.9438 62.8289 45.3197C62.8289 47.3337 62.328 49.2342 61.4451 50.8929L66.53 56.138C67.7743 57.4218 67.7722 59.4768 66.5261 60.7591C65.2458 62.0764 63.1447 62.0758 61.866 60.7571L56.8485 55.5804C55.2459 56.4662 53.4094 56.9729 51.4569 56.973C45.1174 56.973 40.0841 51.6959 40.084 45.3197C40.0841 38.9436 45.1174 33.6665 51.4569 33.6665ZM51.4638 38.8129C48.0848 38.813 45.2073 41.658 45.207 45.3402C45.207 49.0227 48.0846 51.8685 51.4638 51.8685C55.0254 51.8682 57.7186 48.8099 57.7186 45.3402C57.7183 41.6582 54.8426 38.8132 51.4638 38.8129Z" fill="black" fill-opacity="0.5"/>
</g>
<defs>
<clipPath id="clip0_4338_535">
<rect width="113.333" height="113.333" fill="white"/>
</clipPath>
</defs>
</svg>
