<svg width="52" height="50" viewBox="0 0 52 50" fill="none" xmlns="http://www.w3.org/2000/svg">
<path d="M12.1748 1.5C15.468 1.5 18.2627 4.05876 18.2627 7.36914V11.7383C18.2625 14.2649 16.6336 16.352 14.3984 17.1992C16.6336 18.0465 18.2626 20.1334 18.2627 22.6602V27.0293C18.2627 29.5561 16.6336 31.6429 14.3984 32.4902C16.6337 33.3375 18.2627 35.4253 18.2627 37.9521V42.3203C18.2627 45.6307 15.468 48.1895 12.1748 48.1895H7.58789C4.29473 48.1895 1.5 45.6307 1.5 42.3203V37.9521C1.5 35.4255 3.12827 33.3376 5.36328 32.4902C3.12837 31.6428 1.5 29.5559 1.5 27.0293V22.6602C1.50008 20.1336 3.12839 18.0466 5.36328 17.1992C3.12841 16.3519 1.50015 14.2648 1.5 11.7383V7.36914C1.5 4.05873 4.29473 1.5 7.58789 1.5H12.1748ZM44.2871 1.5C47.5801 1.50021 50.374 4.05887 50.374 7.36914V11.7383C50.3739 14.2651 48.7451 16.3521 46.5098 17.1992C48.7451 18.0464 50.3739 20.1333 50.374 22.6602V27.0293C50.374 29.5563 48.7452 31.6431 46.5098 32.4902C48.7453 33.3374 50.374 35.4251 50.374 37.9521V42.3203C50.374 45.6306 47.5801 48.1892 44.2871 48.1895H25.9375C22.6443 48.1895 19.8496 45.6307 19.8496 42.3203V37.9521C19.8496 35.4255 21.4779 33.3376 23.7129 32.4902C21.478 31.6428 19.8496 29.5559 19.8496 27.0293V22.6602C19.8497 20.1336 21.478 18.0466 23.7129 17.1992C21.478 16.3519 19.8498 14.2648 19.8496 11.7383V7.36914C19.8496 4.05873 22.6443 1.5 25.9375 1.5H44.2871ZM9.88086 39.4521C9.37378 39.4523 9.08817 39.8266 9.08789 40.1357C9.08789 40.445 9.37353 40.8202 9.88086 40.8203C10.3884 40.8203 10.6748 40.445 10.6748 40.1357C10.6745 39.8266 10.3882 39.4521 9.88086 39.4521ZM28.2305 39.4521C27.7234 39.4523 27.4378 39.8266 27.4375 40.1357C27.4375 40.445 27.7232 40.8202 28.2305 40.8203H41.9932C42.5006 40.8202 42.7871 40.445 42.7871 40.1357C42.7868 39.8266 42.5003 39.4522 41.9932 39.4521H28.2305ZM9.88086 24.1602C9.37358 24.1603 9.08795 24.5355 9.08789 24.8447C9.08789 25.154 9.37353 25.5292 9.88086 25.5293C10.3884 25.5293 10.6748 25.154 10.6748 24.8447C10.6747 24.5355 10.3883 24.1602 9.88086 24.1602ZM28.2305 24.1602C27.7232 24.1603 27.4376 24.5355 27.4375 24.8447C27.4375 25.154 27.7232 25.5292 28.2305 25.5293H41.9932C42.5006 25.5292 42.7871 25.154 42.7871 24.8447C42.7871 24.5355 42.5005 24.1602 41.9932 24.1602H28.2305ZM9.88086 8.86914C9.37353 8.86926 9.08789 9.24446 9.08789 9.55371C9.08805 9.86291 9.37368 10.2382 9.88086 10.2383C10.3883 10.2383 10.6746 9.86291 10.6748 9.55371C10.6748 9.24446 10.3884 8.86914 9.88086 8.86914ZM28.2305 8.86914C27.7232 8.86928 27.4375 9.24446 27.4375 9.55371C27.4377 9.86291 27.7233 10.2381 28.2305 10.2383H41.9932C42.5004 10.2382 42.7869 9.86294 42.7871 9.55371C42.7871 9.24444 42.5006 8.86921 41.9932 8.86914H28.2305Z" fill="#D2D2D2" stroke="#7B7B7B" stroke-width="3"/>
</svg>
