<svg width="52" height="50" viewBox="0 0 52 50" fill="none" xmlns="http://www.w3.org/2000/svg">
<path d="M19.0557 25.2373C22.3488 25.2373 25.1436 27.796 25.1436 31.1064V42.0283C25.1436 45.3387 22.3488 47.8975 19.0557 47.8975H7.58789C4.29473 47.8975 1.5 45.3387 1.5 42.0283V31.1064C1.5 27.796 4.29473 25.2373 7.58789 25.2373H19.0557ZM44.2871 25.2373C47.5801 25.2375 50.374 27.7962 50.374 31.1064V42.0283C50.374 45.3386 47.5801 47.8972 44.2871 47.8975H32.8184C29.5252 47.8975 26.7305 45.3387 26.7305 42.0283V31.1064C26.7305 27.796 29.5252 25.2373 32.8184 25.2373H44.2871ZM9.88086 32.6064C9.37356 32.6066 9.08789 32.9818 9.08789 33.291V39.8438C9.08789 40.1529 9.37356 40.5281 9.88086 40.5283H16.7627C17.27 40.5282 17.5557 40.153 17.5557 39.8438V33.291C17.5557 32.9818 17.27 32.6066 16.7627 32.6064H9.88086ZM35.1123 32.6064C34.6048 32.6064 34.3184 32.9818 34.3184 33.291V39.8438C34.3184 40.153 34.6048 40.5283 35.1123 40.5283H41.9932C42.5005 40.5282 42.7871 40.153 42.7871 39.8438V33.291C42.7871 32.9818 42.5005 32.6065 41.9932 32.6064H35.1123ZM19.0557 1.5C22.3488 1.5 25.1436 4.05873 25.1436 7.36914V18.291C25.1436 21.6014 22.3488 24.1602 19.0557 24.1602H7.58789C4.29473 24.1602 1.5 21.6014 1.5 18.291V7.36914C1.5 4.05873 4.29473 1.5 7.58789 1.5H19.0557ZM44.2871 1.5C47.5801 1.50024 50.374 4.05889 50.374 7.36914V18.291C50.374 21.6013 47.5801 24.1599 44.2871 24.1602H32.8184C29.5252 24.1602 26.7305 21.6014 26.7305 18.291V7.36914C26.7305 4.05873 29.5252 1.5 32.8184 1.5H44.2871ZM9.88086 8.86914C9.37351 8.8693 9.08789 9.24453 9.08789 9.55371V16.1064C9.08789 16.4156 9.37351 16.7909 9.88086 16.791H16.7627C17.2699 16.7908 17.5557 16.4157 17.5557 16.1064V9.55371C17.5557 9.24449 17.2699 8.86935 16.7627 8.86914H9.88086ZM35.1123 8.86914C34.6048 8.86914 34.3184 9.24446 34.3184 9.55371V16.1064C34.3184 16.4157 34.6048 16.791 35.1123 16.791H41.9932C42.5005 16.7909 42.7871 16.4157 42.7871 16.1064V9.55371C42.7871 9.24445 42.5005 8.86924 41.9932 8.86914H35.1123Z" fill="#D2D2D2" stroke="#7B7B7B" stroke-width="3"/>
</svg>
