<svg width="42" height="46" viewBox="0 0 42 46" fill="none" xmlns="http://www.w3.org/2000/svg">
<path d="M13.8 34.5V23C13.8 21.7297 14.8298 20.7 16.1 20.7C17.3703 20.7 18.4 21.7297 18.4 23V34.5C18.4 35.7703 17.3703 36.8 16.1 36.8C14.8298 36.8 13.8 35.7703 13.8 34.5Z" fill="black"/>
<path d="M23 34.5V23C23 21.7297 24.0298 20.7 25.3 20.7C26.5703 20.7 27.6 21.7297 27.6 23V34.5C27.6 35.7703 26.5703 36.8 25.3 36.8C24.0298 36.8 23 35.7703 23 34.5Z" fill="black"/>
<path d="M4.60002 36.8V18.4C4.60002 17.1297 5.62975 16.1 6.9 16.1C8.17026 16.1 9.19998 17.1297 9.19998 18.4V36.8C9.19999 39.3406 11.2595 41.4 13.8 41.4H27.6C30.1406 41.4 32.2 39.3406 32.2 36.8V18.4C32.2 17.1297 33.2298 16.1 34.5 16.1C35.7703 16.1 36.8 17.1297 36.8 18.4V36.8C36.8 41.8811 32.6811 46 27.6 46H13.8C8.71903 46 4.60004 41.8812 4.60002 36.8Z" fill="black"/>
<path fill-rule="evenodd" clip-rule="evenodd" d="M23 0C26.8108 0 29.9 3.08926 29.9 6.9V9.19998H39.1C40.3703 9.2 41.4001 10.2297 41.4001 11.5C41.4001 12.7702 40.3703 13.7999 39.1 13.7999H27.6054C27.6036 13.7999 27.6018 13.8 27.6 13.8H13.8C13.7982 13.8 13.7964 13.7999 13.7946 13.7999H2.30005C1.02979 13.7999 0 12.7702 0 11.5C1.25177e-05 10.2297 1.0298 9.19998 2.30005 9.19998H11.5V6.9C11.5 3.08924 14.5893 0 18.4 0H23ZM18.4 4.59996C17.1298 4.59996 16.1 5.62975 16.1 6.9V9.19998H25.3V6.9C25.3 5.62972 24.2703 4.59996 23 4.59996H18.4Z" fill="black"/>
</svg>
