<svg width="68" height="68" viewBox="0 0 68 68" fill="none" xmlns="http://www.w3.org/2000/svg">
<path fill-rule="evenodd" clip-rule="evenodd" d="M0.905293 0.905298C2.11236 -0.301771 4.06944 -0.30176 5.27651 0.905298L67.0947 62.7235C68.3018 63.9306 68.3018 65.8876 67.0947 67.0947C65.8876 68.3018 63.9306 68.3018 62.7235 67.0947L59.6341 64.0054C58.4246 64.5847 57.0688 64.9091 55.6364 64.9091H12.3636C9.90435 64.9091 7.54577 63.9321 5.8068 62.1931C4.06785 60.4542 3.09091 58.0956 3.0909 55.6364V46.3637C3.09115 46.1029 3.12436 45.8432 3.18979 45.5909C3.12489 45.3436 3.0909 45.084 3.0909 44.8182V12.3636C3.08838 10.9744 3.3995 9.60843 3.994 8.36522L0.905293 5.27652C-0.301762 4.06944 -0.301767 2.11237 0.905293 0.905298ZM9.27275 42.8895C10.2433 42.8122 11.2694 42.7658 12.3451 42.7504H12.4131C16.2624 42.6857 20.1055 43.0863 23.8587 43.9434C26.5231 44.5616 30.365 45.9773 34.1421 48.246C37.9254 50.5178 41.4553 53.5314 43.7302 57.2498C43.942 57.596 44.2201 57.8971 44.5483 58.1359C44.8766 58.3747 45.2486 58.5466 45.6433 58.6416C46.0379 58.7366 46.4474 58.7529 46.8484 58.6897C47.2493 58.6264 47.6339 58.4847 47.9801 58.2729C48.3264 58.061 48.6275 57.783 48.8663 57.4548C49.1051 57.1265 49.2769 56.7545 49.3719 56.3598C49.4669 55.9652 49.4833 55.5556 49.42 55.1546C49.3568 54.7537 49.2152 54.3691 49.0033 54.0229C48.5794 53.3305 48.1257 52.6625 47.6472 52.0184L41.2182 45.5894C39.9419 44.6109 38.6307 43.7316 37.3258 42.9481C34.5224 41.2605 31.6695 39.9716 29.1133 39.066C30.2056 38.3402 31.3746 37.6465 32.6218 36.993L26.0172 30.3884C24.9812 30.771 23.9721 30.9091 23.1818 30.9091C21.4963 30.8968 19.8548 30.3694 18.4775 29.3976C16.7157 28.1304 15.4545 26.044 15.4545 23.1818C15.4545 22.1164 15.6291 21.1584 15.9392 20.3105L9.27275 13.644V42.8895Z" fill="#6E6E6E"/>
<path d="M55.6364 3.09091C58.0956 3.09092 60.4542 4.06786 62.1931 5.8068C63.9321 7.54577 64.9091 9.90436 64.9091 12.3636V32.4546C64.9089 32.7153 64.8755 32.9749 64.8101 33.2273C64.8755 33.4796 64.9088 33.7393 64.9091 34V49.9862L47.0961 32.1701C50.937 31.4731 54.8252 31.0681 58.7273 30.9585V12.3636C58.7272 11.5439 58.4016 10.7577 57.822 10.178C57.2423 9.59837 56.4561 9.27276 55.6364 9.27275H24.1956L18.0138 3.09091H55.6364Z" fill="#6E6E6E"/>
</svg>
