<svg width="52" height="50" viewBox="0 0 52 50" fill="none" xmlns="http://www.w3.org/2000/svg">
<mask id="path-1-outside-1_3808_553" maskUnits="userSpaceOnUse" x="0" y="0" width="52" height="50" fill="black">
<rect fill="white" width="52" height="50"/>
<path fill-rule="evenodd" clip-rule="evenodd" d="M39.6993 42.3207H44.2867V37.9517H39.6993V42.3207ZM44.2867 33.5827H39.6993C37.1648 33.5827 35.1119 35.5379 35.1119 37.9517V42.3207C35.1119 44.7323 37.1648 46.6896 39.6993 46.6896H44.2867C46.8189 46.6896 48.8741 44.7323 48.8741 42.3207V37.9517C48.8741 35.5379 46.8189 33.5827 44.2867 33.5827ZM23.6433 42.3207H28.2308V37.9517H23.6433V42.3207ZM28.2308 33.5827H23.6433C21.1088 33.5827 19.056 35.5379 19.056 37.9517V42.3207C19.056 44.7323 21.1088 46.6896 23.6433 46.6896H28.2308C30.763 46.6896 32.8182 44.7323 32.8182 42.3207V37.9517C32.8182 35.5379 30.763 33.5827 28.2308 33.5827ZM7.58743 42.3207H12.1748V37.9517H7.58743V42.3207ZM12.1748 33.5827H7.58743C5.05288 33.5827 3 35.5379 3 37.9517V42.3207C3 44.7323 5.05288 46.6896 7.58743 46.6896H12.1748C14.7071 46.6896 16.7622 44.7323 16.7622 42.3207V37.9517C16.7622 35.5379 14.7071 33.5827 12.1748 33.5827ZM39.6993 27.0293H44.2867V22.6603H39.6993V27.0293ZM44.2867 18.2914H39.6993C37.1648 18.2914 35.1119 20.2465 35.1119 22.6603V27.0293C35.1119 29.441 37.1648 31.3983 39.6993 31.3983H44.2867C46.8189 31.3983 48.8741 29.441 48.8741 27.0293V22.6603C48.8741 20.2465 46.8189 18.2914 44.2867 18.2914ZM23.6433 27.0293H28.2308V22.6603H23.6433V27.0293ZM28.2308 18.2914H23.6433C21.1088 18.2914 19.056 20.2465 19.056 22.6603V27.0293C19.056 29.441 21.1088 31.3983 23.6433 31.3983H28.2308C30.763 31.3983 32.8182 29.441 32.8182 27.0293V22.6603C32.8182 20.2465 30.763 18.2914 28.2308 18.2914ZM7.58743 27.0293H12.1748V22.6603H7.58743V27.0293ZM12.1748 18.2914H7.58743C5.05288 18.2914 3 20.2465 3 22.6603V27.0293C3 29.441 5.05288 31.3983 7.58743 31.3983H12.1748C14.7071 31.3983 16.7622 29.441 16.7622 27.0293V22.6603C16.7622 20.2465 14.7071 18.2914 12.1748 18.2914ZM39.6993 11.7379H44.2867V7.36896H39.6993V11.7379ZM44.2867 3H39.6993C37.1648 3 35.1119 4.95511 35.1119 7.36896V11.7379C35.1119 14.1496 37.1648 16.1069 39.6993 16.1069H44.2867C46.8189 16.1069 48.8741 14.1496 48.8741 11.7379V7.36896C48.8741 4.95511 46.8189 3 44.2867 3ZM23.6433 11.7379H28.2308V7.36896H23.6433V11.7379ZM28.2308 3H23.6433C21.1088 3 19.056 4.95511 19.056 7.36896V11.7379C19.056 14.1496 21.1088 16.1069 23.6433 16.1069H28.2308C30.763 16.1069 32.8182 14.1496 32.8182 11.7379V7.36896C32.8182 4.95511 30.763 3 28.2308 3ZM7.58743 11.7379H12.1748V7.36896H7.58743V11.7379ZM12.1748 3H7.58743C5.05288 3 3 4.95511 3 7.36896V11.7379C3 14.1496 5.05288 16.1069 7.58743 16.1069H12.1748C14.7071 16.1069 16.7622 14.1496 16.7622 11.7379V7.36896C16.7622 4.95511 14.7071 3 12.1748 3Z"/>
</mask>
<path fill-rule="evenodd" clip-rule="evenodd" d="M39.6993 42.3207H44.2867V37.9517H39.6993V42.3207ZM44.2867 33.5827H39.6993C37.1648 33.5827 35.1119 35.5379 35.1119 37.9517V42.3207C35.1119 44.7323 37.1648 46.6896 39.6993 46.6896H44.2867C46.8189 46.6896 48.8741 44.7323 48.8741 42.3207V37.9517C48.8741 35.5379 46.8189 33.5827 44.2867 33.5827ZM23.6433 42.3207H28.2308V37.9517H23.6433V42.3207ZM28.2308 33.5827H23.6433C21.1088 33.5827 19.056 35.5379 19.056 37.9517V42.3207C19.056 44.7323 21.1088 46.6896 23.6433 46.6896H28.2308C30.763 46.6896 32.8182 44.7323 32.8182 42.3207V37.9517C32.8182 35.5379 30.763 33.5827 28.2308 33.5827ZM7.58743 42.3207H12.1748V37.9517H7.58743V42.3207ZM12.1748 33.5827H7.58743C5.05288 33.5827 3 35.5379 3 37.9517V42.3207C3 44.7323 5.05288 46.6896 7.58743 46.6896H12.1748C14.7071 46.6896 16.7622 44.7323 16.7622 42.3207V37.9517C16.7622 35.5379 14.7071 33.5827 12.1748 33.5827ZM39.6993 27.0293H44.2867V22.6603H39.6993V27.0293ZM44.2867 18.2914H39.6993C37.1648 18.2914 35.1119 20.2465 35.1119 22.6603V27.0293C35.1119 29.441 37.1648 31.3983 39.6993 31.3983H44.2867C46.8189 31.3983 48.8741 29.441 48.8741 27.0293V22.6603C48.8741 20.2465 46.8189 18.2914 44.2867 18.2914ZM23.6433 27.0293H28.2308V22.6603H23.6433V27.0293ZM28.2308 18.2914H23.6433C21.1088 18.2914 19.056 20.2465 19.056 22.6603V27.0293C19.056 29.441 21.1088 31.3983 23.6433 31.3983H28.2308C30.763 31.3983 32.8182 29.441 32.8182 27.0293V22.6603C32.8182 20.2465 30.763 18.2914 28.2308 18.2914ZM7.58743 27.0293H12.1748V22.6603H7.58743V27.0293ZM12.1748 18.2914H7.58743C5.05288 18.2914 3 20.2465 3 22.6603V27.0293C3 29.441 5.05288 31.3983 7.58743 31.3983H12.1748C14.7071 31.3983 16.7622 29.441 16.7622 27.0293V22.6603C16.7622 20.2465 14.7071 18.2914 12.1748 18.2914ZM39.6993 11.7379H44.2867V7.36896H39.6993V11.7379ZM44.2867 3H39.6993C37.1648 3 35.1119 4.95511 35.1119 7.36896V11.7379C35.1119 14.1496 37.1648 16.1069 39.6993 16.1069H44.2867C46.8189 16.1069 48.8741 14.1496 48.8741 11.7379V7.36896C48.8741 4.95511 46.8189 3 44.2867 3ZM23.6433 11.7379H28.2308V7.36896H23.6433V11.7379ZM28.2308 3H23.6433C21.1088 3 19.056 4.95511 19.056 7.36896V11.7379C19.056 14.1496 21.1088 16.1069 23.6433 16.1069H28.2308C30.763 16.1069 32.8182 14.1496 32.8182 11.7379V7.36896C32.8182 4.95511 30.763 3 28.2308 3ZM7.58743 11.7379H12.1748V7.36896H7.58743V11.7379ZM12.1748 3H7.58743C5.05288 3 3 4.95511 3 7.36896V11.7379C3 14.1496 5.05288 16.1069 7.58743 16.1069H12.1748C14.7071 16.1069 16.7622 14.1496 16.7622 11.7379V7.36896C16.7622 4.95511 14.7071 3 12.1748 3Z" fill="#D2D2D2"/>
<path fill-rule="evenodd" clip-rule="evenodd" d="M39.6993 42.3207H44.2867V37.9517H39.6993V42.3207ZM44.2867 33.5827H39.6993C37.1648 33.5827 35.1119 35.5379 35.1119 37.9517V42.3207C35.1119 44.7323 37.1648 46.6896 39.6993 46.6896H44.2867C46.8189 46.6896 48.8741 44.7323 48.8741 42.3207V37.9517C48.8741 35.5379 46.8189 33.5827 44.2867 33.5827ZM23.6433 42.3207H28.2308V37.9517H23.6433V42.3207ZM28.2308 33.5827H23.6433C21.1088 33.5827 19.056 35.5379 19.056 37.9517V42.3207C19.056 44.7323 21.1088 46.6896 23.6433 46.6896H28.2308C30.763 46.6896 32.8182 44.7323 32.8182 42.3207V37.9517C32.8182 35.5379 30.763 33.5827 28.2308 33.5827ZM7.58743 42.3207H12.1748V37.9517H7.58743V42.3207ZM12.1748 33.5827H7.58743C5.05288 33.5827 3 35.5379 3 37.9517V42.3207C3 44.7323 5.05288 46.6896 7.58743 46.6896H12.1748C14.7071 46.6896 16.7622 44.7323 16.7622 42.3207V37.9517C16.7622 35.5379 14.7071 33.5827 12.1748 33.5827ZM39.6993 27.0293H44.2867V22.6603H39.6993V27.0293ZM44.2867 18.2914H39.6993C37.1648 18.2914 35.1119 20.2465 35.1119 22.6603V27.0293C35.1119 29.441 37.1648 31.3983 39.6993 31.3983H44.2867C46.8189 31.3983 48.8741 29.441 48.8741 27.0293V22.6603C48.8741 20.2465 46.8189 18.2914 44.2867 18.2914ZM23.6433 27.0293H28.2308V22.6603H23.6433V27.0293ZM28.2308 18.2914H23.6433C21.1088 18.2914 19.056 20.2465 19.056 22.6603V27.0293C19.056 29.441 21.1088 31.3983 23.6433 31.3983H28.2308C30.763 31.3983 32.8182 29.441 32.8182 27.0293V22.6603C32.8182 20.2465 30.763 18.2914 28.2308 18.2914ZM7.58743 27.0293H12.1748V22.6603H7.58743V27.0293ZM12.1748 18.2914H7.58743C5.05288 18.2914 3 20.2465 3 22.6603V27.0293C3 29.441 5.05288 31.3983 7.58743 31.3983H12.1748C14.7071 31.3983 16.7622 29.441 16.7622 27.0293V22.6603C16.7622 20.2465 14.7071 18.2914 12.1748 18.2914ZM39.6993 11.7379H44.2867V7.36896H39.6993V11.7379ZM44.2867 3H39.6993C37.1648 3 35.1119 4.95511 35.1119 7.36896V11.7379C35.1119 14.1496 37.1648 16.1069 39.6993 16.1069H44.2867C46.8189 16.1069 48.8741 14.1496 48.8741 11.7379V7.36896C48.8741 4.95511 46.8189 3 44.2867 3ZM23.6433 11.7379H28.2308V7.36896H23.6433V11.7379ZM28.2308 3H23.6433C21.1088 3 19.056 4.95511 19.056 7.36896V11.7379C19.056 14.1496 21.1088 16.1069 23.6433 16.1069H28.2308C30.763 16.1069 32.8182 14.1496 32.8182 11.7379V7.36896C32.8182 4.95511 30.763 3 28.2308 3ZM7.58743 11.7379H12.1748V7.36896H7.58743V11.7379ZM12.1748 3H7.58743C5.05288 3 3 4.95511 3 7.36896V11.7379C3 14.1496 5.05288 16.1069 7.58743 16.1069H12.1748C14.7071 16.1069 16.7622 14.1496 16.7622 11.7379V7.36896C16.7622 4.95511 14.7071 3 12.1748 3Z" stroke="#7B7B7B" stroke-width="6" mask="url(#path-1-outside-1_3808_553)"/>
</svg>
