<svg width="114" height="114" viewBox="0 0 114 114" fill="none" xmlns="http://www.w3.org/2000/svg">
<g clip-path="url(#clip0_4332_576)">
<path d="M103.783 88.1494C110.01 78.8307 113.333 67.8745 113.333 56.667C113.333 49.2254 111.867 41.8566 109.02 34.9814C106.172 28.1065 101.998 21.8596 96.7363 16.5977C91.4744 11.3358 85.2275 7.16124 78.3525 4.31348C71.4775 1.46575 64.1084 4.03439e-05 56.667 0C45.4595 0 34.5033 3.3233 25.1845 9.5498C15.8658 15.7764 8.60242 24.627 4.31345 34.9814C0.0245523 45.3359 -1.09762 56.7295 1.08884 67.7217C3.27534 78.7139 8.67265 88.8114 16.5976 96.7363C24.5225 104.661 34.6193 110.058 45.6113 112.244C56.6036 114.431 67.998 113.308 78.3525 109.02C88.7067 104.731 97.5567 97.4679 103.783 88.1494Z" fill="black" fill-opacity="0.5"/>
<circle cx="56.668" cy="56.667" r="42" fill="white"/>
<path d="M80.1494 57.4595C83.2109 58.2888 83.1382 62.6576 80.0508 63.3843L53.5635 69.6167C52.9928 69.7509 52.3954 69.7179 51.8428 69.522L38.3174 64.7241C37.081 64.2858 35.736 65.0108 35.4229 66.2847C35.152 67.3873 35.7586 68.517 36.8271 68.9009L52.9756 74.6997L79.8828 68.4399C81.1922 68.1354 82.501 68.9499 82.8057 70.2593C83.1101 71.5685 82.2955 72.8773 80.9863 73.1821L53.5576 79.563C53.5297 79.5695 53.5007 79.5729 53.4727 79.5786C53.0086 79.7066 52.5027 79.7 52.0146 79.5269C46.0176 77.3996 39.9498 75.2436 32.5273 71.7847C30.6954 70.931 30.0912 67.5815 30.6953 65.1226C31.2871 62.715 33.0326 60.9204 35.1768 60.146C35.4004 59.9819 35.6566 59.8538 35.9385 59.772L45.5703 56.9761L44.9736 59.3647C44.558 61.0274 45.0455 62.7873 46.2578 63.9995L46.4912 64.2183C47.6891 65.2688 49.3323 65.6725 50.8916 65.2827L57.9795 63.5112L58.2979 63.4204C59.0312 63.1832 59.6989 62.7742 60.2461 62.2271L68.2393 54.2329L80.1494 57.4595Z" fill="black" fill-opacity="0.5"/>
<path fill-rule="evenodd" clip-rule="evenodd" d="M74.7291 35.2239C72.6531 33.148 69.2875 33.148 67.2116 35.2239L64.2351 38.2004L50.2265 52.2089C49.9994 52.4361 49.8383 52.7207 49.7604 53.0322L47.9885 60.1198C47.8375 60.7236 48.0145 61.3624 48.4546 61.8024C48.8947 62.2425 49.5334 62.4195 50.1372 62.2686L57.2248 60.4967C57.5365 60.4187 57.8209 60.2576 58.048 60.0305L71.9548 46.1238L75.0331 43.0455C77.1091 40.9696 77.1091 37.6038 75.0331 35.5279L74.7291 35.2239ZM69.7174 37.7298C70.4093 37.0378 71.5313 37.0378 72.2232 37.7298L72.5273 38.0338C73.2192 38.7258 73.2192 39.8477 72.5273 40.5396L70.7262 42.3408L67.9701 39.4771L69.7174 37.7298ZM65.4638 41.9834L68.2198 44.8471L55.8893 57.1777L52.1427 58.1143L53.0793 54.3678L65.4638 41.9834Z" fill="black" fill-opacity="0.5"/>
</g>
<defs>
<clipPath id="clip0_4332_576">
<rect width="113.333" height="113.333" fill="white"/>
</clipPath>
</defs>
</svg>
