<svg width="114" height="114" viewBox="0 0 114 114" fill="none" xmlns="http://www.w3.org/2000/svg">
<g clip-path="url(#clip0_4338_543)">
<path d="M103.783 88.1494C110.01 78.8307 113.333 67.8745 113.333 56.667C113.333 49.2254 111.867 41.8566 109.02 34.9814C106.172 28.1065 101.998 21.8596 96.7363 16.5977C91.4744 11.3358 85.2275 7.16124 78.3525 4.31348C71.4775 1.46575 64.1084 4.03439e-05 56.667 0C45.4595 0 34.5033 3.3233 25.1845 9.5498C15.8658 15.7764 8.60242 24.627 4.31345 34.9814C0.0245523 45.3359 -1.09762 56.7295 1.08884 67.7217C3.27534 78.7139 8.67265 88.8114 16.5976 96.7363C24.5225 104.661 34.6193 110.058 45.6113 112.244C56.6036 114.431 67.998 113.308 78.3525 109.02C88.7067 104.731 97.5567 97.4679 103.783 88.1494Z" fill="black" fill-opacity="0.5"/>
<circle cx="56.668" cy="56.667" r="42" fill="white"/>
<path d="M80.148 57.46C83.2091 58.2895 83.1365 62.658 80.0494 63.3848L53.5611 69.6162C52.9903 69.7504 52.3931 69.7175 51.8404 69.5215L38.316 64.7246C37.0796 64.286 35.7338 65.0104 35.4205 66.2842C35.1496 67.3868 35.7562 68.5175 36.8248 68.9014L52.9732 74.6992L79.8804 68.4395C81.1897 68.1349 82.4985 68.9496 82.8033 70.2588C83.1078 71.5681 82.2933 72.8769 80.984 73.1816L53.5562 79.5625C53.5283 79.569 53.4994 79.5724 53.4713 79.5781C53.0071 79.7062 52.5005 79.7005 52.0123 79.5273C46.0152 77.4001 39.9475 75.2431 32.525 71.7842C30.6934 70.9303 30.0889 67.5818 30.6929 65.123C31.2846 62.7153 33.0301 60.921 35.1744 60.1465C35.3981 59.9823 35.6541 59.8534 35.9361 59.7715L49.859 55.7305V58.9385C49.859 60.7447 50.577 62.4768 51.8531 63.7529L51.8863 63.7861L51.9195 63.8184L52.0211 63.9141L52.0582 63.9502L52.0972 63.9854C53.262 65.0401 54.7571 65.6611 56.3287 65.7393L56.3814 65.7412L56.4332 65.7422L56.5728 65.7461L56.6197 65.7471H56.6676C58.3609 65.7469 59.988 65.1152 61.2359 63.9854L61.2701 63.9551L61.3033 63.9229L61.4049 63.8271L61.481 63.7529C62.7583 62.4754 63.4742 60.7426 63.4742 58.9385V54.5146H67.898C68.2556 54.5146 68.6105 54.4838 68.9595 54.4287L80.148 57.46Z" fill="black" fill-opacity="0.5"/>
<path d="M67.8988 44.8992H59.4749V36.4752C59.4749 35.7305 59.1794 35.0162 58.6529 34.4896C58.1263 33.9631 57.412 33.667 56.6673 33.667C55.9226 33.667 55.2084 33.9631 54.6818 34.4896C54.1552 35.0162 53.8591 35.7305 53.8591 36.4752V44.8992H45.4352L45.2956 44.9024C44.6017 44.9369 43.9432 45.2282 43.4496 45.7218C42.9231 46.2484 42.627 46.9627 42.627 47.7074C42.627 48.452 42.9231 49.1664 43.4496 49.6929L43.5503 49.789C44.0654 50.2554 44.737 50.5149 45.4352 50.5149H53.8591V58.9389C53.8591 59.6836 54.1552 60.3978 54.6818 60.9244L54.7825 61.0205C55.2632 61.4558 55.88 61.7116 56.5278 61.7438L56.6673 61.7471C57.3654 61.747 58.0365 61.4868 58.5515 61.0205L58.6529 60.9244C59.1793 60.3978 59.4749 59.6835 59.4749 58.9389V50.5149H67.8988C68.5969 50.5149 69.2686 50.2553 69.7837 49.789L69.8844 49.6929C70.3781 49.1992 70.6694 48.5403 70.7037 47.8462L70.707 47.7074C70.707 46.9626 70.411 46.2484 69.8844 45.7218C69.3578 45.1952 68.6436 44.8992 67.8988 44.8992Z" fill="black" fill-opacity="0.5"/>
</g>
<defs>
<clipPath id="clip0_4338_543">
<rect width="113.333" height="113.333" fill="white"/>
</clipPath>
</defs>
</svg>
