<svg width="65" height="62" viewBox="0 0 65 62" fill="none" xmlns="http://www.w3.org/2000/svg">
<path d="M30.1956 0.578999C31.6121 -0.181169 33.3124 -0.19253 34.737 0.543213L34.8046 0.57881C36.1401 1.29578 36.7385 2.60299 36.9922 3.17018C37.318 3.8986 37.6506 4.85986 38.0049 5.87429L42.8118 19.6391L57.4485 19.936C58.5274 19.9579 59.5486 19.9758 60.3455 20.0592C60.9566 20.1231 62.3544 20.2812 63.4448 21.2804L63.4965 21.3286C64.6783 22.4518 65.2141 24.0918 64.9214 25.6918C64.6497 27.1787 63.5855 28.1488 63.1219 28.5643C62.5266 29.0979 61.7109 29.71 60.8512 30.3588L49.1846 39.1626L53.4242 53.111C53.7366 54.139 54.0351 55.1116 54.2016 55.8915C54.3312 56.4987 54.6194 57.9056 53.9622 59.2671C53.2539 60.7341 51.8522 61.747 50.2334 61.9644L50.2319 61.9646C48.7285 62.1657 47.4738 61.4585 46.9333 61.1479C46.4129 60.8489 45.8122 60.4462 45.1707 60.0047L32.5001 51.2292L20.4833 59.5527C19.5976 60.1662 18.7608 60.7493 18.067 61.148C17.5264 61.4586 16.2717 62.1657 14.7683 61.9646L14.7667 61.9644C13.1482 61.747 11.7465 60.7344 11.0383 59.2675C10.3807 57.906 10.669 56.4989 10.7987 55.8915C10.9652 55.1115 11.2638 54.1392 11.5762 53.1111L15.8155 39.1627L4.1494 30.359C3.28973 29.7101 2.4738 29.0979 1.87852 28.5644C1.41487 28.1488 0.350953 27.1792 0.0788093 25.693C-0.214324 24.0924 0.321184 22.4523 1.50346 21.329C2.60111 20.2861 4.03421 20.1241 4.6547 20.0592C5.45146 19.9758 6.47277 19.9579 7.55153 19.936L22.1884 19.6391L26.9952 5.87438C27.3494 4.85998 27.6822 3.89852 28.008 3.16999C28.2619 2.60248 28.8597 1.29581 30.1956 0.578999Z" fill="black"/>
</svg>
