<svg width="114" height="114" viewBox="0 0 114 114" fill="none" xmlns="http://www.w3.org/2000/svg">
<g clip-path="url(#clip0_3830_554)">
<path d="M103.783 88.1494C110.01 78.8307 113.333 67.8745 113.333 56.667C113.333 49.2254 111.867 41.8566 109.02 34.9814C106.172 28.1065 101.998 21.8596 96.7363 16.5977C91.4744 11.3358 85.2275 7.16124 78.3525 4.31348C71.4775 1.46575 64.1084 4.03439e-05 56.667 0C45.4595 0 34.5033 3.3233 25.1845 9.5498C15.8658 15.7764 8.60242 24.627 4.31345 34.9814C0.0245523 45.3359 -1.09762 56.7295 1.08884 67.7217C3.27534 78.7139 8.67265 88.8114 16.5976 96.7363C24.5225 104.661 34.6193 110.058 45.6113 112.244C56.6036 114.431 67.998 113.308 78.3525 109.02C88.7067 104.731 97.5567 97.4679 103.783 88.1494Z" fill="black" fill-opacity="0.5"/>
<circle cx="56.667" cy="56.6667" r="42" fill="white"/>
<path d="M71.3982 65.5052L62.5593 56.6664L71.3982 47.8275C72.1795 47.0462 72.619 45.9867 72.619 44.8817C72.619 43.7768 72.1801 42.7166 71.3988 41.9352C70.6175 41.1539 69.5573 40.7151 68.4523 40.715C67.3473 40.715 66.2872 41.1538 65.5058 41.9352L56.667 50.7741L47.8282 41.9352L47.6783 41.7923C46.914 41.1004 45.9175 40.715 44.8816 40.715C43.7767 40.7151 42.7165 41.1539 41.9351 41.9352C41.1539 42.7166 40.715 43.7768 40.715 44.8817L40.7198 45.0882C40.7709 46.118 41.2033 47.095 41.9358 47.8275L50.7747 56.6664L41.9358 65.5052C41.1544 66.2866 40.7157 67.3467 40.7157 68.4517L40.7205 68.6582C40.7681 69.6194 41.147 70.535 41.7929 71.2484L41.9358 71.3982C42.6683 72.1306 43.6455 72.5618 44.6752 72.6129L44.8823 72.6184C45.9872 72.6183 47.0469 72.1788 47.8282 71.3975L56.667 62.5587L65.5058 71.3975C66.2383 72.13 67.2154 72.5624 68.2452 72.6136L68.4516 72.6184C69.4877 72.6184 70.4846 72.2327 71.249 71.5405L71.3982 71.3982C72.1796 70.6168 72.6183 69.5568 72.6183 68.4517C72.6183 67.3467 72.1796 66.2866 71.3982 65.5052Z" fill="black" fill-opacity="0.5"/>
</g>
<defs>
<clipPath id="clip0_3830_554">
<rect width="113.333" height="113.333" fill="white"/>
</clipPath>
</defs>
</svg>
