<svg width="54" height="60" viewBox="0 0 54 60" fill="none" xmlns="http://www.w3.org/2000/svg">
<path d="M33.5404 23.1346H30.1863V19.8296C30.1863 17.8467 28.8447 16.5247 26.8323 16.5247C24.8199 16.5247 23.4783 17.8467 23.4783 19.8296V23.1346H20.1242C18.1118 23.1346 16.7702 24.4566 16.7702 26.4395C16.7702 28.4225 18.1118 29.7445 20.1242 29.7445H23.4783V33.0494C23.4783 35.0324 24.8199 36.3543 26.8323 36.3543C28.8447 36.3543 30.1863 35.0324 30.1863 33.0494V29.7445H33.5404C35.5528 29.7445 36.8944 28.4225 36.8944 26.4395C36.8944 24.4566 35.5528 23.1346 33.5404 23.1346Z" fill="black"/>
<path d="M50.3106 0H3.35404C1.34161 0 0 1.32198 0 3.30494C0 5.2879 1.34161 6.60988 3.35404 6.60988V53.2095C3.35404 55.523 4.69565 57.8365 7.04348 59.1584C8.04969 59.8194 9.0559 59.8194 10.0621 59.8194C11.4037 59.8194 12.7453 59.4889 13.7516 58.8279L26.8323 50.2351L39.913 58.8279C41.9255 60.1499 44.6087 60.4804 46.9565 59.1584C49.3043 58.1669 50.646 55.8535 50.646 53.2095V6.60988C52.6584 6.60988 54 5.2879 54 3.30494C54 1.32198 52.323 0 50.3106 0ZM43.6025 53.2095L30.5217 44.6167C29.5155 43.9557 28.1739 43.6252 26.8323 43.6252C25.4907 43.6252 24.1491 43.9557 23.1429 44.6167L10.0621 53.2095V6.60988H43.6025V53.2095Z" fill="black"/>
</svg>
