<svg width="114" height="114" viewBox="0 0 114 114" fill="none" xmlns="http://www.w3.org/2000/svg">
<g clip-path="url(#clip0_4331_535)">
<path d="M103.783 88.1494C110.01 78.8307 113.333 67.8745 113.333 56.667C113.333 49.2254 111.867 41.8566 109.02 34.9814C106.172 28.1065 101.998 21.8596 96.7363 16.5977C91.4744 11.3358 85.2275 7.16124 78.3525 4.31348C71.4775 1.46575 64.1084 4.03439e-05 56.667 0C45.4595 0 34.5033 3.3233 25.1845 9.5498C15.8658 15.7764 8.60242 24.627 4.31345 34.9814C0.0245523 45.3359 -1.09762 56.7295 1.08884 67.7217C3.27534 78.7139 8.67265 88.8114 16.5976 96.7363C24.5225 104.661 34.6193 110.058 45.6113 112.244C56.6036 114.431 67.998 113.308 78.3525 109.02C88.7067 104.731 97.5567 97.4679 103.783 88.1494Z" fill="black" fill-opacity="0.5"/>
<circle cx="56.668" cy="56.667" r="42" fill="white"/>
<path d="M41.3906 41.1338C42.495 41.134 43.3906 42.0294 43.3906 43.1338C43.3906 44.2382 42.495 45.1336 41.3906 45.1338H40.8867C39.7821 45.1338 38.8867 46.0292 38.8867 47.1338V73.5947C38.887 74.6991 39.7823 75.5947 40.8867 75.5947H66.7988C67.9032 75.5947 68.7986 74.6991 68.7988 73.5947V73.5312C68.799 72.4268 69.6944 71.5312 70.7988 71.5312C71.9033 71.5312 72.7987 72.4268 72.7988 73.5312V73.5947C72.7986 76.9082 70.1124 79.5947 66.7988 79.5947H40.8867C37.5732 79.5947 34.887 76.9082 34.8867 73.5947V47.1338C34.8867 43.8201 37.573 41.1338 40.8867 41.1338H41.3906ZM72.9043 46.2578C74.1468 46.2579 75.1543 47.2652 75.1543 48.5078V61.9395C75.1539 67.0477 71.0126 71.1893 65.9043 71.1895H57.5566C52.4483 71.1895 48.307 67.0478 48.3066 61.9395V48.5078C48.3066 47.2652 49.314 46.2578 50.5566 46.2578C51.7993 46.2578 52.8066 47.2652 52.8066 48.5078V61.9395C52.807 64.5625 54.9335 66.6895 57.5566 66.6895H65.9043C68.5273 66.6893 70.6539 64.5624 70.6543 61.9395V48.5078C70.6543 47.2652 71.6617 46.2578 72.9043 46.2578ZM58.0156 50.0625C59.2583 50.0625 60.2656 51.0699 60.2656 52.3125V61.6318C60.2656 62.8745 59.2583 63.8818 58.0156 63.8818C56.773 63.8818 55.7656 62.8745 55.7656 61.6318V52.3125C55.7656 51.0699 56.773 50.0625 58.0156 50.0625ZM65.3945 50.0625C66.6372 50.0625 67.6445 51.0699 67.6445 52.3125V61.6318C67.6445 62.8745 66.6372 63.8818 65.3945 63.8818C64.1519 63.8818 63.1445 62.8745 63.1445 61.6318V52.3125C63.1445 51.0699 64.1519 50.0625 65.3945 50.0625ZM62.1562 33.4883C66.1603 33.4883 69.4062 36.7342 69.4062 40.7383V40.8838H76.4512C77.6938 40.8838 78.7012 41.8911 78.7012 43.1338C78.7012 44.3764 77.6938 45.3838 76.4512 45.3838H47.2402C45.9976 45.3838 44.9902 44.3764 44.9902 43.1338C44.9902 41.8911 45.9976 40.8838 47.2402 40.8838H53.9111V40.7383C53.9112 36.7343 57.1572 33.4884 61.1611 33.4883H62.1562ZM61.1611 37.9883C59.6425 37.9884 58.4112 39.2196 58.4111 40.7383V40.8838H64.9062V40.7383C64.9062 39.2195 63.675 37.9883 62.1562 37.9883H61.1611Z" fill="black" fill-opacity="0.5"/>
</g>
<defs>
<clipPath id="clip0_4331_535">
<rect width="113.333" height="113.333" fill="white"/>
</clipPath>
</defs>
</svg>
