<svg width="114" height="114" viewBox="0 0 114 114" fill="none" xmlns="http://www.w3.org/2000/svg">
<g clip-path="url(#clip0_4332_572)">
<path d="M103.783 88.1494C110.01 78.8307 113.333 67.8745 113.333 56.667C113.333 49.2254 111.867 41.8566 109.02 34.9814C106.172 28.1065 101.998 21.8596 96.7363 16.5977C91.4744 11.3358 85.2275 7.16124 78.3525 4.31348C71.4775 1.46575 64.1084 4.03439e-05 56.667 0C45.4595 0 34.5033 3.3233 25.1845 9.5498C15.8658 15.7764 8.60242 24.627 4.31345 34.9814C0.0245523 45.3359 -1.09762 56.7295 1.08884 67.7217C3.27534 78.7139 8.67265 88.8114 16.5976 96.7363C24.5225 104.661 34.6193 110.058 45.6113 112.244C56.6036 114.431 67.998 113.308 78.3525 109.02C88.7067 104.731 97.5567 97.4679 103.783 88.1494Z" fill="black" fill-opacity="0.5"/>
<circle cx="56.668" cy="56.667" r="42" fill="white"/>
<path d="M50.9818 56.6782V49.0078C50.9818 48.1605 51.6687 47.4737 52.5159 47.4737C53.3631 47.4737 54.05 48.1605 54.05 49.0078V56.6782C54.05 57.5254 53.3631 58.2122 52.5159 58.2122C51.6687 58.2122 50.9818 57.5254 50.9818 56.6782Z" fill="black" fill-opacity="0.5"/>
<path d="M57.1182 56.6782V49.0078C57.1182 48.1605 57.805 47.4737 58.6522 47.4737C59.4995 47.4737 60.1863 48.1605 60.1863 49.0078V56.6782C60.1863 57.5254 59.4995 58.2122 58.6522 58.2122C57.805 58.2122 57.1182 57.5254 57.1182 56.6782Z" fill="black" fill-opacity="0.5"/>
<path d="M44.8455 58.2123V45.9396C44.8455 45.0924 45.5323 44.4055 46.3796 44.4055C47.2268 44.4055 47.9136 45.0924 47.9136 45.9396V58.2123C47.9137 59.9068 49.2873 61.2804 50.9818 61.2804H60.1863C61.8809 61.2804 63.2545 59.9068 63.2545 58.2123V45.9396C63.2545 45.0924 63.9413 44.4055 64.7885 44.4055C65.6358 44.4055 66.3226 45.0924 66.3226 45.9396V58.2123C66.3226 61.6013 63.5754 64.3486 60.1863 64.3486H50.9818C47.5929 64.3486 44.8455 61.6013 44.8455 58.2123Z" fill="black" fill-opacity="0.5"/>
<path fill-rule="evenodd" clip-rule="evenodd" d="M57.1181 33.667C59.6599 33.667 61.7204 35.7275 61.7204 38.2692V39.8033H67.8567C68.7039 39.8033 69.3908 40.4901 69.3908 41.3374C69.3908 42.1846 68.7039 42.8714 67.8567 42.8714H60.1899C60.1887 42.8714 60.1875 42.8715 60.1863 42.8715H50.9818C50.9806 42.8715 50.9794 42.8714 50.9782 42.8714H43.3115C42.4642 42.8714 41.7773 42.1846 41.7773 41.3374C41.7774 40.4901 42.4642 39.8033 43.3115 39.8033H49.4478V38.2692C49.4478 35.7275 51.5082 33.667 54.05 33.667H57.1181ZM54.05 36.7351C53.2027 36.7351 52.5159 37.422 52.5159 38.2692V39.8033H58.6522V38.2692C58.6522 37.422 57.9654 36.7351 57.1181 36.7351H54.05Z" fill="black" fill-opacity="0.5"/>
<path d="M76.824 60.604C79.4521 61.3159 79.3902 65.0661 76.7401 65.6899L54.0018 71.0396C53.5119 71.1547 52.9995 71.1257 52.5252 70.9575L40.9149 66.8403C39.8535 66.4639 38.6993 67.0856 38.4305 68.1792C38.198 69.1257 38.7183 70.0958 39.6356 70.4253L53.4979 75.4028L76.5955 70.0288C77.7194 69.7676 78.8428 70.4674 79.1043 71.5913C79.3655 72.7152 78.6657 73.8386 77.5418 74.1001L53.9979 79.5776C53.9737 79.5832 53.9488 79.5864 53.9246 79.5913C53.5262 79.7012 53.0917 79.695 52.6727 79.5464C47.5247 77.7203 42.3157 75.8691 35.9442 72.8999C34.372 72.1667 33.8534 69.2927 34.3719 67.1821C34.8798 65.1152 36.3778 63.5745 38.2186 62.9097C38.4106 62.7688 38.6308 62.6586 38.8729 62.5884L42.7947 61.4497C44.0849 64.7096 47.2626 67.0169 50.9813 67.0171H60.1863C64.9594 67.017 68.841 63.2178 68.9822 58.479L76.824 60.604Z" fill="black" fill-opacity="0.5"/>
</g>
<defs>
<clipPath id="clip0_4332_572">
<rect width="113.333" height="113.333" fill="white"/>
</clipPath>
</defs>
</svg>
