<svg width="36" height="30" viewBox="0 0 36 30" fill="none" xmlns="http://www.w3.org/2000/svg">
<path d="M22.05 9.9998H6.93227L13.4945 3.41427C14.2729 2.63307 14.2729 1.36709 13.4945 0.585894C12.716 -0.195298 11.4545 -0.195298 10.6761 0.585894L0.493241 10.8044C-0.164414 11.4644 -0.164414 12.5348 0.493241 13.1948L10.6761 23.4139C11.4545 24.1951 12.716 24.1951 13.4945 23.4139C14.2729 22.6327 14.2729 21.3667 13.4945 20.5855L6.93227 14H22.05C27.5533 14 32.0146 18.4771 32.0146 24.0001V28.0002C32.0146 29.1048 32.9066 30 34.0073 30C35.108 30 36 29.1048 36 28.0002V24.0001C36 16.2679 29.7541 10.0004 22.05 10.0004V9.9998Z" fill="#33363F"/>
</svg>
