<svg width="114" height="114" viewBox="0 0 114 114" fill="none" xmlns="http://www.w3.org/2000/svg">
<g clip-path="url(#clip0_3830_555)">
<path d="M103.783 88.1494C110.01 78.8307 113.333 67.8745 113.333 56.667C113.333 49.2254 111.867 41.8566 109.02 34.9814C106.172 28.1065 101.998 21.8596 96.7363 16.5977C91.4744 11.3358 85.2275 7.16124 78.3525 4.31348C71.4775 1.46575 64.1084 4.03439e-05 56.667 0C45.4595 0 34.5033 3.3233 25.1845 9.5498C15.8658 15.7764 8.60242 24.627 4.31345 34.9814C0.0245523 45.3359 -1.09762 56.7295 1.08884 67.7217C3.27534 78.7139 8.67265 88.8114 16.5976 96.7363C24.5225 104.661 34.6193 110.058 45.6113 112.244C56.6036 114.431 67.998 113.308 78.3525 109.02C88.7067 104.731 97.5567 97.4679 103.783 88.1494Z" fill="black" fill-opacity="0.5"/>
<circle cx="56.667" cy="56.6667" r="42" fill="white"/>
<path d="M73.333 52.4998H60.833V39.9998C60.833 38.8948 60.3946 37.8349 59.6133 37.0535C58.832 36.2721 57.7719 35.8328 56.667 35.8328C55.562 35.8328 54.5021 36.2722 53.7207 37.0535C52.9393 37.8349 52.5 38.8947 52.5 39.9998V52.4998H40L39.793 52.5046C38.7633 52.5558 37.7862 52.988 37.0537 53.7205C36.2724 54.5018 35.833 55.5618 35.833 56.6667C35.8331 57.7717 36.2724 58.8317 37.0537 59.613L37.2031 59.7556C37.9675 60.4477 38.964 60.8328 40 60.8328H52.5V73.3328C52.5 74.4378 52.9393 75.4977 53.7207 76.2791L53.8701 76.4216C54.5835 77.0676 55.4988 77.4472 56.46 77.4949L56.667 77.4998C57.7028 77.4997 58.6986 77.1136 59.4629 76.4216L59.6133 76.2791C60.3945 75.4977 60.833 74.4377 60.833 73.3328V60.8328H73.333C74.3689 60.8328 75.3656 60.4476 76.1299 59.7556L76.2793 59.613C77.0119 58.8804 77.4441 57.9027 77.4951 56.8728L77.5 56.6667C77.5 55.5617 77.0607 54.5019 76.2793 53.7205C75.4979 52.9391 74.4381 52.4998 73.333 52.4998Z" fill="black" fill-opacity="0.5"/>
</g>
<defs>
<clipPath id="clip0_3830_555">
<rect width="113.333" height="113.333" fill="white"/>
</clipPath>
</defs>
</svg>
