<svg width="46" height="46" viewBox="0 0 46 46" fill="none" xmlns="http://www.w3.org/2000/svg">
<path fill-rule="evenodd" clip-rule="evenodd" d="M43.605 2.00378C40.9333 -0.667916 36.6018 -0.667939 33.93 2.00378L30.0993 5.83447L12.0701 23.8635C11.7779 24.1559 11.5706 24.5221 11.4703 24.923L9.18986 34.0448C8.99557 34.822 9.22327 35.6441 9.78969 36.2103C10.3561 36.7768 11.1782 37.0046 11.9553 36.8103L21.077 34.5298C21.4781 34.4295 21.8441 34.2222 22.1365 33.9299L40.0345 16.032L43.9963 12.0701C46.6681 9.39843 46.6681 5.06673 43.9963 2.39504L43.605 2.00378ZM37.155 5.22881C38.0455 4.33825 39.4895 4.33825 40.38 5.22881L40.7713 5.62006C41.6619 6.51064 41.6619 7.95455 40.7713 8.84511L38.4533 11.1632L34.9063 7.47759L37.155 5.22881ZM31.6806 10.7032L35.2276 14.3888L19.3582 30.2583L14.5364 31.4638L15.7418 26.642L31.6806 10.7032ZM4.56088 14.0739C4.56088 12.8145 5.58188 11.7935 6.84133 11.7935H18.2435C19.503 11.7935 20.524 10.7725 20.524 9.51303C20.524 8.25358 19.503 7.23258 18.2435 7.23258H6.84133C3.06298 7.23258 0 10.2956 0 14.0739V39.1587C0 42.9371 3.06298 46 6.84133 46H31.9262C35.7047 46 38.7675 42.9371 38.7675 39.1587V27.7565C38.7675 26.4972 37.7466 25.476 36.4871 25.476C35.2276 25.476 34.2066 26.4972 34.2066 27.7565V39.1587C34.2066 40.4182 33.1857 41.4391 31.9262 41.4391H6.84133C5.58188 41.4391 4.56088 40.4182 4.56088 39.1587V14.0739Z" fill="black"/>
</svg>
