<svg width="114" height="114" viewBox="0 0 114 114" fill="none" xmlns="http://www.w3.org/2000/svg">
<g clip-path="url(#clip0_4331_548)">
<path d="M103.783 88.1494C110.01 78.8307 113.333 67.8745 113.333 56.667C113.333 49.2254 111.867 41.8566 109.02 34.9814C106.172 28.1065 101.998 21.8596 96.7363 16.5977C91.4744 11.3358 85.2275 7.16124 78.3525 4.31348C71.4775 1.46575 64.1084 4.03439e-05 56.667 0C45.4595 0 34.5033 3.3233 25.1845 9.5498C15.8658 15.7764 8.60242 24.627 4.31345 34.9814C0.0245523 45.3359 -1.09762 56.7295 1.08884 67.7217C3.27534 78.7139 8.67265 88.8114 16.5976 96.7363C24.5225 104.661 34.6193 110.058 45.6113 112.244C56.6036 114.431 67.998 113.308 78.3525 109.02C88.7067 104.731 97.5567 97.4679 103.783 88.1494Z" fill="black" fill-opacity="0.5"/>
<circle cx="56.668" cy="56.667" r="42" fill="white"/>
<path fill-rule="evenodd" clip-rule="evenodd" d="M77.273 35.6703C74.6012 32.9986 70.2698 32.9986 67.598 35.6703L63.7673 39.501L45.7381 57.53C45.4458 57.8224 45.2385 58.1886 45.1383 58.5895L42.8578 67.7113C42.6635 68.4885 42.8912 69.3106 43.4577 69.8768C44.0241 70.4433 44.8461 70.6711 45.6233 70.4768L54.745 68.1963C55.1461 68.096 55.5121 67.8887 55.8044 67.5964L73.7025 49.6985L77.6643 45.7366C80.3361 43.0649 80.3361 38.7332 77.6643 36.0615L77.273 35.6703ZM70.823 38.8953C71.7135 38.0048 73.1575 38.0048 74.048 38.8953L74.4393 39.2866C75.3298 40.1771 75.3298 41.6211 74.4393 42.5116L72.1212 44.8297L68.5742 41.1441L70.823 38.8953ZM65.3486 44.3697L68.8956 48.0553L53.0262 63.9248L48.2044 65.1303L49.4098 60.3085L65.3486 44.3697ZM38.2289 47.7404C38.2289 46.481 39.2499 45.46 40.5093 45.46H51.9115C53.171 45.46 54.1919 44.439 54.1919 43.1795C54.1919 41.9201 53.171 40.8991 51.9115 40.8991H40.5093C36.7309 40.8991 33.668 43.9621 33.668 47.7404V72.8252C33.668 76.6037 36.7309 79.6665 40.5093 79.6665H65.5942C69.3726 79.6665 72.4355 76.6037 72.4355 72.8252V61.423C72.4355 60.1637 71.4145 59.1425 70.155 59.1425C68.8956 59.1425 67.8746 60.1637 67.8746 61.423V72.8252C67.8746 74.0847 66.8536 75.1056 65.5942 75.1056H40.5093C39.2499 75.1056 38.2289 74.0847 38.2289 72.8252V47.7404Z" fill="black" fill-opacity="0.5"/>
</g>
<defs>
<clipPath id="clip0_4331_548">
<rect width="113.333" height="113.333" fill="white"/>
</clipPath>
</defs>
</svg>
