<svg width="65" height="62" viewBox="0 0 65 62" fill="none" xmlns="http://www.w3.org/2000/svg">
<path d="M30.1955 0.578998C31.6121 -0.181168 33.3123 -0.19253 34.7369 0.543213L34.8045 0.578809L34.8054 0.579281C36.1409 1.29625 36.7385 2.60299 36.9921 3.17018C37.3179 3.89859 37.6505 4.85986 38.0048 5.87429L38.0049 5.87438L42.8117 19.6391L57.4485 19.936C58.5273 19.9579 59.5486 19.9758 60.3454 20.0592C60.9565 20.1231 62.3543 20.2812 63.4447 21.2804L63.4964 21.3286L63.4971 21.3293C64.6789 22.4524 65.214 24.0918 64.9214 25.6918L64.9215 25.6919C64.6497 27.1788 63.5854 28.1488 63.1218 28.5643C62.5265 29.0979 61.7108 29.71 60.8512 30.3588L60.8509 30.359L49.1845 39.1626L53.4242 53.111V53.1113C53.7365 54.1393 54.035 55.1116 54.2015 55.8915C54.3312 56.4987 54.6194 57.9056 53.9621 59.2671L53.9622 59.2672C53.2539 60.7342 51.8522 61.747 50.2334 61.9644C50.2329 61.9644 50.2324 61.9645 50.2319 61.9646C48.7284 62.1657 47.4737 61.4585 46.9332 61.1479C46.4129 60.8489 45.8121 60.4462 45.1706 60.0047L32.5 51.2292L20.4833 59.5527C19.5975 60.1663 18.7608 60.7493 18.0669 61.148C17.5263 61.4586 16.2717 62.1657 14.7682 61.9646C14.7677 61.9645 14.7672 61.9645 14.7666 61.9644C13.1481 61.747 11.7465 60.7344 11.0382 59.2675C10.3806 57.906 10.6689 56.4989 10.7986 55.8915C10.9651 55.1115 11.2637 54.1392 11.5761 53.1111L15.8155 39.1627L4.14931 30.359L4.14912 30.3588C3.28944 29.71 2.47373 29.0979 1.87844 28.5644C1.41479 28.1488 0.350872 27.1792 0.0787256 25.693L0.0788204 25.693C-0.214318 24.0923 0.321083 22.4523 1.50338 21.329C2.60104 20.2861 4.03411 20.1241 4.65461 20.0592C5.45139 19.9758 6.47268 19.9579 7.55144 19.936L22.1883 19.6391L26.9951 5.87438C27.3494 4.85998 27.6821 3.89851 28.008 3.16999C28.2618 2.60248 28.8596 1.29581 30.1955 0.578998ZM28.1571 22.1791C28.0311 22.5397 27.7338 23.5471 27.0644 24.3392L27.0643 24.3392C26.555 24.9419 25.9055 25.4117 25.1722 25.7076L25.1721 25.7075C24.2084 26.0963 23.1541 26.0666 22.7709 26.0744L9.54571 26.3426L20.0867 34.2972L20.0875 34.2979C20.3828 34.5209 21.2089 35.0842 21.7599 35.9168L21.8124 35.9982L21.8135 36.0002C22.2312 36.6678 22.4794 37.4272 22.5356 38.2129L22.5357 38.2132C22.6094 39.2456 22.2551 40.2345 22.1441 40.5998V40.6001L18.3137 53.2025L29.1711 45.6822L29.1712 45.6821C29.4873 45.4632 30.3207 44.8242 31.3275 44.5745L31.3307 44.5737C32.0748 44.39 32.8513 44.3844 33.5966 44.5563L33.6687 44.5735L33.6728 44.5745C34.6799 44.8243 35.5138 45.464 35.8287 45.6821L35.8288 45.6822L46.6865 53.2027L42.856 40.6001L42.8559 40.5998C42.7444 40.2328 42.3911 39.2458 42.4643 38.2146C42.4644 38.2138 42.4644 38.213 42.4645 38.2122C42.5208 37.4281 42.7683 36.6686 43.1867 35.9999L43.1882 35.9974C43.7377 35.1209 44.6067 34.5288 44.9126 34.2978L44.9133 34.2972L55.4543 26.3426L42.2291 26.0744C41.8464 26.0666 40.7919 26.0965 39.8282 25.7076C39.0951 25.4118 38.4449 24.9421 37.9351 24.3384C37.2659 23.5461 36.9686 22.5384 36.8432 22.1794L36.8431 22.1792L32.5 9.74222L28.1571 22.1791Z" fill="black"/>
</svg>
