<svg width="68" height="60" viewBox="0 0 68 60" fill="none" xmlns="http://www.w3.org/2000/svg">
<path d="M35.0276 0.700139C38.14 -0.203053 41.4415 -0.233138 44.5696 0.614201L63.9133 5.85444C67.8535 6.92178 67.7599 12.5443 63.7864 13.4794L29.6965 21.4999C28.9618 21.6727 28.193 21.6302 27.4817 21.3779L10.0754 15.204C8.48409 14.6396 6.75288 15.5722 6.34984 17.2119C6.00126 18.631 6.78124 20.085 8.15648 20.579L28.9397 28.0419L63.5696 19.9853C65.2548 19.5933 66.9392 20.6419 67.3313 22.3271C67.7232 24.0123 66.6747 25.6967 64.9895 26.0888L29.6897 34.3007C29.6535 34.3091 29.6166 34.3139 29.5803 34.3212C28.983 34.486 28.3317 34.4777 27.7034 34.2548L10.0754 28.0019C8.48403 27.4374 6.75279 28.3709 6.34984 30.0107C6.00137 31.4297 6.78138 32.8828 8.15648 33.3769L28.9397 40.8398L63.5696 32.7841C65.2547 32.3921 66.939 33.4399 67.3313 35.1249C67.7234 36.8102 66.6747 38.4945 64.9895 38.8867L29.6897 47.0996C29.6509 47.1086 29.6115 47.1142 29.5725 47.122C28.9773 47.2845 28.3289 47.2755 27.7034 47.0537L10.0754 40.8007C8.48409 40.2362 6.75289 41.1689 6.34984 42.8085C6.00114 44.2277 6.7812 45.6816 8.15648 46.1757L28.9397 53.6386L63.5696 45.582C65.2548 45.19 66.9392 46.2386 67.3313 47.9238C67.7234 49.609 66.6747 51.2934 64.9895 51.6855L29.6897 59.8974C28.9528 60.0688 28.182 60.0241 27.47 59.7685L6.03929 52.0732C1.64345 50.4946 -0.849597 45.8492 0.264874 41.3134C0.673452 39.6508 1.51009 38.2161 2.62327 37.0888C0.467536 34.8965 -0.512559 31.6802 0.264874 28.5156C0.673453 26.8528 1.50997 25.4173 2.62327 24.29C0.467444 22.0978 -0.51264 18.8814 0.264874 15.7167C1.02639 12.6179 3.2727 10.3082 6.03245 9.31147C6.32039 9.1002 6.65004 8.93538 7.01292 8.83002L35.0276 0.700139Z" fill="black"/>
</svg>
