<svg width="60" height="60" viewBox="0 0 60 60" fill="none" xmlns="http://www.w3.org/2000/svg">
<path fill-rule="evenodd" clip-rule="evenodd" d="M30 15C24.4771 15 20 19.4771 20 25C20 30.5227 24.4771 35 30 35C35.5227 35 40 30.5227 40 25C40 19.4771 35.5227 15 30 15Z" fill="black"/>
<path fill-rule="evenodd" clip-rule="evenodd" d="M30 5C16.1929 5 5 16.1929 5 30C5 43.807 16.1929 55 30 55C43.807 55 55 43.807 55 30C55 16.1929 43.807 5 30 5ZM10 30C10 18.9543 18.9543 10 30 10C41.0457 10 50 18.9543 50 30C50 35.0722 48.1117 39.7032 45.0002 43.229C41.0212 39.6685 35.763 37.5 30.0005 37.5C24.2378 37.5 18.9792 39.6687 15.0004 43.2295C11.8883 39.7037 10 35.0725 10 30Z" fill="black"/>
</svg>
